<svg xmlns="http://www.w3.org/2000/svg" viewBox="0 0 512 512" width="512" height="512">
  <rect width="512" height="512" fill="#1e3a8a"/>
  <rect x="96" y="128" width="320" height="260" rx="20" fill="#1e40af"/>
  <rect x="96" y="192" width="320" height="7" fill="#2563eb"/>
  <circle cx="158" cy="160" r="20" fill="none" stroke="#93c5fd" stroke-width="7"/>
  <circle cx="158" cy="160" r="7" fill="#93c5fd"/>
  <circle cx="220" cy="155" r="7" fill="#60a5fa"/>
  <circle cx="241" cy="155" r="5.5" fill="#3b82f6" opacity="0.65"/>
  <circle cx="259" cy="155" r="4.5" fill="#3b82f6" opacity="0.4"/>
  <circle cx="256" cy="294" r="92" fill="#172554" stroke="#93c5fd" stroke-width="9"/>
  <circle cx="256" cy="294" r="67" fill="#0f172a" stroke="#60a5fa" stroke-width="5"/>
  <path d="M209 287 Q225 269 241 287 Q257 305 273 287 Q289 269 303 287" stroke="#60a5fa" stroke-width="7" fill="none" stroke-linecap="round"/>
  <path d="M209 309 Q225 291 241 309 Q257 327 273 309 Q289 291 303 309" stroke="#93c5fd" stroke-width="5.5" fill="none" stroke-linecap="round" opacity="0.7"/>
</svg>
